<svg width="18" height="20" viewBox="0 0 18 20" fill="none" xmlns="http://www.w3.org/2000/svg">
<path fill-rule="evenodd" clip-rule="evenodd" d="M16 4V6H2.00017V8H16V18H2V4H16ZM17 2H14V0.2C14 0.14696 13.9789 0.0960899 13.9414 0.0585799C13.9039 0.0210699 13.853 0 13.8 0H12.2C12.147 0 12.0961 0.0210699 12.0586 0.0585799C12.0211 0.0960899 12 0.14696 12 0.2V2H6V0.2C6 0.14696 5.97893 0.0960899 5.94142 0.0585799C5.90391 0.0210699 5.85304 0 5.8 0H4.2C4.14696 0 4.09609 0.0210699 4.05858 0.0585799C4.02107 0.0960899 4 0.14696 4 0.2V2H1C0.73478 2 0.48043 2.10536 0.29289 2.29289C0.10536 2.48043 0 2.73478 0 3V19C0 19.2652 0.10536 19.5196 0.29289 19.7071C0.48043 19.8946 0.73478 20 1 20H17C17.2652 20 17.5196 19.8946 17.7071 19.7071C17.8946 19.5196 18 19.2652 18 19V3C18 2.73478 17.8946 2.48043 17.7071 2.29289C17.5196 2.10536 17.2652 2 17 2ZM9.8002 10H8.2002C8.1739 10 8.1479 10.0052 8.1236 10.0152C8.0994 10.0253 8.0773 10.04 8.0587 10.0586C8.0402 10.0772 8.0254 10.0992 8.0154 10.1235C8.0053 10.1477 8.0002 10.1737 8.0002 10.2V12H6.2C6.14696 12 6.09609 12.0211 6.05858 12.0586C6.02107 12.0961 6 12.147 6 12.2V13.8C6 13.853 6.02107 13.9039 6.05858 13.9414C6.09609 13.9789 6.14696 14 6.2 14H8.0002V15.8C8.0002 15.8263 8.0053 15.8523 8.0154 15.8765C8.0254 15.9008 8.0402 15.9229 8.0587 15.9414C8.0773 15.96 8.0994 15.9747 8.1236 15.9848C8.1479 15.9948 8.1739 16 8.2002 16H9.8002C9.8264 16 9.8524 15.9948 9.8767 15.9848C9.901 15.9747 9.923 15.96 9.9416 15.9414C9.9602 15.9229 9.9749 15.9008 9.9849 15.8765C9.995 15.8523 10.0002 15.8263 10.0002 15.8V14H11.8C11.853 14 11.9039 13.9789 11.9414 13.9414C11.9789 13.9039 12 13.853 12 13.8V12.2C12 12.147 11.9789 12.0961 11.9414 12.0586C11.9039 12.0211 11.853 12 11.8 12H10.0002V10.2C10.0002 10.1737 9.995 10.1477 9.9849 10.1235C9.9749 10.0992 9.9602 10.0772 9.9416 10.0586C9.923 10.04 9.901 10.0253 9.8767 10.0152C9.8524 10.0052 9.8264 10 9.8002 10Z" fill="#C9C9CA"/>
</svg>
