<svg width="18" height="20" viewBox="0 0 18 20" fill="none" xmlns="http://www.w3.org/2000/svg">
<path d="M8.20019 0.599976C7.75859 0.599976 7.40019 0.958375 7.40019 1.39998V2.3531C3.31143 3.1091 0.200195 6.69644 0.200195 11C0.200195 15.8506 4.14956 19.8 9.00019 19.8C13.8508 19.8 17.8002 15.8506 17.8002 11C17.8002 6.69644 14.689 3.1091 10.6002 2.3531V1.39998C10.6002 0.958375 10.2418 0.599976 9.8002 0.599976H8.20019ZM15.3924 2.19216C15.0668 2.19225 14.7738 2.38957 14.6513 2.69118C14.5288 2.99279 14.6013 3.33855 14.8346 3.5656L15.6346 4.3656C15.8352 4.57459 16.1332 4.65877 16.4135 4.58569C16.6939 4.5126 16.9128 4.29366 16.9859 4.01331C17.059 3.73296 16.9748 3.435 16.7658 3.23435L15.9658 2.43435C15.8152 2.27952 15.6084 2.19217 15.3924 2.19216L15.3924 2.19216ZM9.00019 3.79998C12.9861 3.79998 16.2002 7.01405 16.2002 11C16.2002 14.9859 12.9861 18.2 9.00019 18.2C5.01427 18.2 1.80019 14.9859 1.80019 11C1.80019 7.01405 5.01427 3.79998 9.00019 3.79998ZM8.98769 5.38904C8.54648 5.39594 8.19415 5.75875 8.20019 6.19998V9.61716C7.70603 9.90247 7.4012 10.4294 7.40019 11C7.40065 11.5711 7.70554 12.0988 8.20019 12.3844V13.4C8.19611 13.6885 8.3477 13.9568 8.59689 14.1023C8.84609 14.2477 9.1543 14.2477 9.40349 14.1023C9.65269 13.9568 9.80427 13.6885 9.80019 13.4V12.3828C10.2944 12.0975 10.5992 11.5706 10.6002 11C10.5997 10.4288 10.2948 9.90119 9.80019 9.6156V6.19998C9.80315 5.98374 9.71845 5.77551 9.56538 5.62273C9.41232 5.46996 9.20393 5.38566 8.98769 5.38904H8.98769Z" fill="#C9C9CA"/>
</svg>
